<?xml version="1.0" standalone="no"?>
<!DOCTYPE svg PUBLIC "-//W3C//DTD SVG 20010904//EN" "http://www.w3.org/TR/2001/REC-SVG-20010904/DTD/svg10.dtd">
<svg xmlns="http://www.w3.org/2000/svg"
  xmlns:xlink="http://www.w3.org/1999/xlink" width="720pt" height="720pt" viewBox="0 0 720 720">
  <defs/>
  <g id="group0" transform="translate(89.208, 7.26311804600272)" fill="none">
    <path id="shape0" transform="matrix(0.72 0 0 0.72 176.085529538715 1.77635683940025e-15)" fill="#ea2049" stroke-opacity="0" stroke="#000000" stroke-width="0" stroke-linecap="square" stroke-linejoin="bevel" d="M227.837 2.91234L131.537 53.9123L34.8368 2.81234C16.2368 -6.98766 -4.96324 10.4123 1.03676 30.5123L53.4368 205.512C79.1368 197.512 105.237 193.412 131.437 193.412C157.337 193.412 183.037 197.312 208.437 205.212L261.537 30.8123C267.737 10.6123 246.537 -6.98766 227.837 2.91234Z"/>
    <path id="shape1" transform="matrix(0.72 0 0 0.72 0 161.648881953997)" fill="#ea2049" stroke-opacity="0" stroke="#000000" stroke-width="0" stroke-linecap="square" stroke-linejoin="bevel" d="M752.2 501.8C752.2 294.1 583.8 0 376.1 0C168.4 0 0 294 0 501.8C0 709.5 168.4 755.4 376.1 755.4C583.8 755.4 752.2 709.5 752.2 501.8ZM408.5 557.7L408.5 594.6C408.5 606.5 398.8 616.2 386.9 616.2L368.3 616.2C356.4 616.2 346.7 606.5 346.7 594.6L346.7 561C321 557.8 290.1 548.4 264.6 531.5C255.3 525.3 252.6 512.6 258.6 503.1L277.8 473C283.9 463.5 296.5 460.5 306.1 466.5C328.2 480.2 346.8 485.9 365.5 485.9C393.1 485.9 404.1 476.5 404.1 455C404.1 410.8 261.7 404.8 261.7 308.2C261.7 252.5 293.2 213.8 346.7 202.2L346.7 165.5C346.7 154.1 356 144.8 367.4 144.8L387.8 144.8C399.2 144.8 408.5 154.1 408.5 165.5L408.5 201.1C435.6 205.4 457.6 217.1 476.5 233C485.4 240.5 486.5 253.7 478.9 262.5L458.1 286.5C451.1 294.5 439.2 296.1 430.5 290C416.3 280.1 402.9 275.1 387.6 275.1C363.9 275.1 352.3 281.7 352.3 303.8C352.3 345.7 494.7 348 494.7 448.4C494.6 501.9 466.5 543.9 408.5 557.7Z" />
  </g>
</svg>
