<svg viewBox="0 0 1024 1024">
    <path d="M214 810h598v-256h-10q-60 0-96-40-40 40-96 40-54 0-98-40-40 40-94 40-60 0-100-40-36 40-94 40h-10v256zM172 400q-6 28 12 50 14 20 40 20 42 0 50-50l26-206h-84zM362 412q0 22 15 40t37 18q24 0 40-17t16-39v-200h-84l-24 192v6zM554 214v200q0 22 16 39t36 17q26 0 43-19t13-45l-24-192h-84zM806 212l-82 2 26 206q2 20 16 35t34 15q24 0 40-20 18-22 12-50zM934 380q16 70-26 122l-12 12v296q0 34-26 60t-60 26h-596q-34 0-60-26t-26-60v-296l-12-12q-42-52-26-122l44-188q6-28 30-46t52-18h592q28 0 51 18t31 46z"></path>
</svg>