<?xml version="1.0" encoding="UTF-8" standalone="no" ?>
<!DOCTYPE svg PUBLIC "-//W3C//DTD SVG 1.1//EN" "http://www.w3.org/Graphics/SVG/1.1/DTD/svg11.dtd">
<svg xmlns="http://www.w3.org/2000/svg"
	xmlns:xlink="http://www.w3.org/1999/xlink" version="1.1" width="640" height="640" viewBox="0 0 640 640" xml:space="preserve">
	<defs />
	<g transform="matrix(0.6030185188 0 0 0.6014808646 298.5290322581 320)" id="hyPJeBc9TieSn0cYnNpUq">
		<g style="">
			<g transform="matrix(1 0 0 1 -0.2183417627 -387.2)" id="9DWOjNPAAVDWpr_ATwLAk">
				<path style="stroke: none; stroke-width: 1; stroke-dasharray: none; stroke-linecap: butt; stroke-dashoffset: 0; stroke-linejoin: miter; stroke-miterlimit: 4; fill: rgb(255,255,255); fill-rule: nonzero; opacity: 1;" transform=" translate(-499.7816582373, -112.8438319764)" d="M 596.3 13 L 500 64 L 403.3 12.899999999999999 C 384.7 3.099999999999998 363.5 20.5 369.5 40.599999999999994 L 421.9 215.6 C 447.59999999999997 207.6 473.7 203.5 499.9 203.5 C 525.8 203.5 551.5 207.4 576.9 215.3 L 630 40.900000000000006 C 636.2 20.7 615 3.1 596.3 13 z" stroke-linecap="round" />
			</g>
			<g transform="matrix(1 0 0 1 0 112.2561680236)" id="9EpBTrDVDllnnhELFRizg">
				<path style="stroke: none; stroke-width: 1; stroke-dasharray: none; stroke-linecap: butt; stroke-dashoffset: 0; stroke-linejoin: miter; stroke-miterlimit: 4; fill: rgb(255,255,255); fill-rule: nonzero; opacity: 1;" transform=" translate(-500, -612.3)" d="M 876.1 736.4 C 876.1 528.7 707.7 234.59999999999997 500 234.59999999999997 C 292.29999999999995 234.59999999999997 123.9 528.6 123.9 736.4 C 123.9 944.1 292.3 990 500 990 C 707.7 990 876.1 944.1 876.1 736.4 z M 532.4 792.3 L 532.4 829.1999999999999 C 532.4 841.0999999999999 522.6999999999999 850.8 510.79999999999995 850.8 L 492.19999999999993 850.8 C 480.29999999999995 850.8 470.5999999999999 841.0999999999999 470.5999999999999 829.1999999999999 L 470.5999999999999 795.5999999999999 C 444.8999999999999 792.3999999999999 413.9999999999999 782.9999999999999 388.4999999999999 766.0999999999999 C 379.1999999999999 759.8999999999999 376.4999999999999 747.1999999999999 382.4999999999999 737.6999999999999 L 401.6999999999999 707.5999999999999 C 407.7999999999999 698.0999999999999 420.39999999999986 695.0999999999999 429.9999999999999 701.0999999999999 C 452.0999999999999 714.8 470.6999999999999 720.4999999999999 489.39999999999986 720.4999999999999 C 516.9999999999999 720.4999999999999 527.9999999999999 711.0999999999999 527.9999999999999 689.5999999999999 C 527.9999999999999 645.3999999999999 385.5999999999999 639.3999999999999 385.5999999999999 542.8 C 385.5999999999999 487.09999999999997 417.0999999999999 448.4 470.5999999999999 436.79999999999995 L 470.5999999999999 400.09999999999997 C 470.5999999999999 388.7 479.8999999999999 379.4 491.2999999999999 379.4 L 511.6999999999999 379.4 C 523.0999999999999 379.4 532.3999999999999 388.7 532.3999999999999 400.09999999999997 L 532.3999999999999 435.7 C 559.4999999999999 440 581.4999999999999 451.7 600.3999999999999 467.59999999999997 C 609.2999999999998 475.09999999999997 610.3999999999999 488.29999999999995 602.7999999999998 497.09999999999997 L 581.9999999999999 521.0999999999999 C 574.9999999999999 529.0999999999999 563.0999999999999 530.6999999999999 554.3999999999999 524.5999999999999 C 540.1999999999998 514.6999999999999 526.7999999999998 509.69999999999993 511.4999999999999 509.69999999999993 C 487.7999999999999 509.69999999999993 476.1999999999999 516.3 476.1999999999999 538.4 C 476.1999999999999 580.3 618.5999999999999 582.6 618.5999999999999 683 C 618.5 736.5 590.4 778.5 532.4 792.3 z" stroke-linecap="round" />
			</g>
		</g>
	</g>
	<g transform="matrix(1 0 0 1 38.2520808561 415.6308108589)" id="T5afoZoqyUdtJbtVzqj3S">
		<path style="stroke: rgb(0,0,0); stroke-width: 1; stroke-dasharray: none; stroke-linecap: round; stroke-dashoffset: 0; stroke-linejoin: round; stroke-miterlimit: 10; fill: none; fill-rule: nonzero; opacity: 1;" transform=" translate(-38.2520808561, -415.6308108589)" d="M 38.25108085612366 415.6308108589456 L 38.25308085612365 415.6308108589456" stroke-linecap="round" />
	</g>
</svg>