<svg viewBox="0 0 1024 1024">
    <path d="M981.333 512c0-129.579-52.565-246.997-137.472-331.861s-202.283-137.472-331.861-137.472-246.997 52.565-331.861 137.472-137.472 202.283-137.472 331.861 52.565 246.997 137.472 331.861 202.283 137.472 331.861 137.472 246.997-52.565 331.861-137.472 137.472-202.283 137.472-331.861zM896 512c0 106.069-42.923 201.984-112.469 271.531s-165.461 112.469-271.531 112.469-201.984-42.923-271.531-112.469-112.469-165.461-112.469-271.531 42.923-201.984 112.469-271.531 165.461-112.469 271.531-112.469 201.984 42.923 271.531 112.469 112.469 165.461 112.469 271.531zM341.333 554.667h128v128c0 23.552 19.115 42.667 42.667 42.667s42.667-19.115 42.667-42.667v-128h128c23.552 0 42.667-19.115 42.667-42.667s-19.115-42.667-42.667-42.667h-128v-128c0-23.552-19.115-42.667-42.667-42.667s-42.667 19.115-42.667 42.667v128h-128c-23.552 0-42.667 19.115-42.667 42.667s19.115 42.667 42.667 42.667z"></path>
</svg>