<svg viewBox="0 0 1024 1024">
    <path d="M469.333 554.667v341.333h-256v-341.333zM554.667 896v-341.333h256v341.333zM320 256c-17.664 0-33.621-7.125-45.269-18.731s-18.731-27.605-18.731-45.269 7.125-33.621 18.731-45.269 27.605-18.731 45.269-18.731c26.837 0 48.725 9.515 67.584 25.003 16.043 13.141 29.909 30.677 41.643 50.219 10.283 17.109 18.475 35.029 24.747 51.328zM569.429 256c6.869-17.749 15.061-35.669 25.301-52.779 11.733-19.584 25.643-37.077 41.643-50.219 18.901-15.488 40.789-25.003 67.627-25.003 17.664 0 33.621 7.125 45.269 18.731s18.731 27.605 18.731 45.269-7.125 33.621-18.731 45.269-27.605 18.731-45.269 18.731zM469.333 341.333v128h-341.333v-128h192zM838.955 256c9.216-19.413 14.379-41.088 14.379-64 0-41.216-16.768-78.635-43.733-105.6s-64.384-43.733-105.6-43.733c-49.493 0-89.984 18.347-121.685 44.331-25.728 21.077-45.568 47.061-60.715 72.277-3.413 5.675-6.613 11.349-9.6 16.981-2.987-5.632-6.187-11.307-9.6-16.981-15.147-25.216-34.987-51.2-60.715-72.277-31.701-25.984-72.192-44.331-121.685-44.331-41.216 0-78.635 16.768-105.6 43.733s-43.733 64.384-43.733 105.6c0 22.912 5.163 44.587 14.379 64h-99.712c-23.552 0-42.667 19.115-42.667 42.667v213.333c0 23.552 19.115 42.667 42.667 42.667h42.667v384c0 23.552 19.115 42.667 42.667 42.667h682.667c23.552 0 42.667-19.115 42.667-42.667v-384h42.667c23.552 0 42.667-19.115 42.667-42.667v-213.333c0-23.552-19.115-42.667-42.667-42.667zM554.667 341.333h341.333v128h-341.333z"></path>
</svg>