<svg viewBox="0 0 1024 1024">
    <path d="M192 0v1024h768v-1024h-768zM576 256.33c70.51 0 127.67 57.16 127.67 127.67s-57.16 127.67-127.67 127.67-127.67-57.16-127.67-127.67 57.16-127.67 127.67-127.67v0zM768 768h-384v-64c0-70.696 57.306-128 128-128v0h128c70.696 0 128 57.304 128 128v64z" class="jsx-19c553754d20c9af"></path>
    <path d="M64 64h96v192h-96v-192z" class="jsx-19c553754d20c9af"></path>
    <path d="M64 320h96v192h-96v-192z" class="jsx-19c553754d20c9af"></path>
    <path d="M64 576h96v192h-96v-192z" class="jsx-19c553754d20c9af"></path>
    <path d="M64 832h96v192h-96v-192z" class="jsx-19c553754d20c9af"></path>
</svg>