<svg viewBox="0 0 1024 1024">
    <path d="M853.333 853.333h-682.667c-70.571 0-128-57.429-128-128v-426.667c0-70.571 57.429-128 128-128h682.667c70.571 0 128 57.429 128 128v426.667c0 70.571-57.429 128-128 128zM170.667 256c-23.509 0-42.667 19.157-42.667 42.667v426.667c0 23.509 19.157 42.667 42.667 42.667h682.667c23.509 0 42.667-19.157 42.667-42.667v-426.667c0-23.509-19.157-42.667-42.667-42.667h-682.667z"></path>
    <path d="M426.667 640h-170.667c-23.595 0-42.667-19.115-42.667-42.667s19.072-42.667 42.667-42.667h170.667c23.595 0 42.667 19.115 42.667 42.667s-19.072 42.667-42.667 42.667z"></path>
    <path d="M426.667 469.333h-170.667c-23.595 0-42.667-19.115-42.667-42.667s19.072-42.667 42.667-42.667h170.667c23.595 0 42.667 19.115 42.667 42.667s-19.072 42.667-42.667 42.667z"></path>
    <path d="M768 448c0 47.128-38.205 85.333-85.333 85.333s-85.333-38.205-85.333-85.333c0-47.128 38.205-85.333 85.333-85.333 47.128 0 85.333 38.205 85.333 85.333z"></path>
    <path d="M682.667 569.856c-66.645 0-106.667 30.507-106.667 60.971 0 15.232 40.021 30.507 106.667 30.507 62.549 0 106.667-15.232 106.667-30.507 0-30.464-41.813-60.971-106.667-60.971z"></path>
</svg>