<svg viewBox="0 0 1170.2857142857142 1024">
    <path d="M274.286 621.714c0-50.286-41.143-91.429-91.429-91.429s-91.429 41.143-91.429 91.429 41.143 91.429 91.429 91.429 91.429-41.143 91.429-91.429zM294.857 438.857h580.571l-50.857-204c-1.714-6.286-13.143-15.429-20-15.429h-438.857c-6.857 0-18.286 9.143-20 15.429zM1078.857 621.714c0-50.286-41.143-91.429-91.429-91.429s-91.429 41.143-91.429 91.429 41.143 91.429 91.429 91.429 91.429-41.143 91.429-91.429zM1170.286 566.857v219.429c0 10.286-8 18.286-18.286 18.286h-54.857v73.143c0 60.571-49.143 109.714-109.714 109.714s-109.714-49.143-109.714-109.714v-73.143h-585.143v73.143c0 60.571-49.143 109.714-109.714 109.714s-109.714-49.143-109.714-109.714v-73.143h-54.857c-10.286 0-18.286-8-18.286-18.286v-219.429c0-70.857 57.143-128 128-128h16l60-239.429c17.714-72 87.429-126.286 161.714-126.286h438.857c74.286 0 144 54.286 161.714 126.286l60 239.429h16c70.857 0 128 57.143 128 128z"></path>
</svg>