<svg width="2107" height="924" viewBox="0 0 2107 924" fill="none" xmlns="http://www.w3.org/2000/svg">
<path d="M302.651 547.45C309.225 556.658 315.918 568.557 322.73 583.147C329.662 597.618 336.355 613.523 342.809 630.863C349.263 648.204 355.059 665.963 360.198 684.141C365.457 702.199 369.76 719.599 373.106 736.341C376.452 753.084 378.365 767.973 378.843 781.008C378.962 787.346 376.094 790.515 370.238 790.515H326.853C321.236 790.515 318.308 787.705 318.069 782.084C317.591 768.69 315.44 752.426 311.615 733.292H213.732C210.385 751.948 208.473 768.212 207.995 782.084C207.756 787.705 204.708 790.515 198.852 790.515H156.364C154.213 790.515 152.42 789.917 150.986 788.722C149.552 787.406 148.894 785.194 149.014 782.084C149.611 768.81 151.524 753.742 154.751 736.88C158.097 719.898 162.4 702.318 167.658 684.141C172.917 665.963 178.773 648.204 185.227 630.863C191.681 613.403 198.374 597.438 205.306 582.968C212.238 568.498 218.99 556.658 225.564 547.45C229.03 542.547 232.675 538.959 236.499 536.687C240.443 534.415 245.284 533.278 251.021 533.278H276.836C282.692 533.278 287.592 534.415 291.536 536.687C295.48 538.959 299.185 542.547 302.651 547.45ZM262.136 589.964C254.247 602.521 247.017 617.529 240.443 634.989C233.87 652.449 228.193 670.388 223.412 688.805H301.217C296.198 670.388 290.401 652.449 283.828 634.989C277.254 617.529 270.382 602.521 263.211 589.964H262.136Z" fill="#2F2828"/>
<path d="M497.235 781.008C497.235 784.596 496.458 787.107 494.905 788.542C493.47 789.858 490.961 790.515 487.375 790.515H449.19C445.604 790.515 443.035 789.858 441.481 788.542C440.047 787.107 439.33 784.596 439.33 781.008V561.98C439.33 558.512 439.927 555.881 441.122 554.087C446.501 546.194 454.03 537.883 463.711 529.153C465.504 527.718 467.057 527 468.372 527C469.806 527 471.3 527.718 472.854 529.153C478.113 533.697 482.535 538.062 486.12 542.248C489.706 546.314 492.813 550.26 495.442 554.087C496.638 556 497.235 558.631 497.235 561.98V781.008Z" fill="#2F2828"/>
<path d="M800.889 746.566C809.614 746.566 816.426 745.669 821.326 743.875C826.346 742.082 830.23 739.869 832.979 737.238C835.728 734.607 838.118 731.976 840.15 729.345C842.062 726.954 843.616 725.16 844.811 723.964C846.126 722.768 847.919 721.931 850.189 721.452C852.102 720.855 855.149 720.496 859.332 720.376C863.635 720.137 867.878 720.017 872.061 720.017C876.363 720.017 879.351 720.137 881.024 720.376C883.534 720.496 885.267 720.974 886.223 721.811C887.18 722.648 887.777 724.442 888.016 727.193C888.375 731.02 888.554 735.564 888.554 740.826C888.673 746.088 888.614 750.632 888.375 754.459C888.255 755.655 888.016 756.672 887.658 757.509C887.419 758.346 886.821 759.602 885.865 761.276C884.67 763.189 882.339 766 878.873 769.707C875.407 773.295 870.328 777.062 863.635 781.008C856.942 784.835 848.277 788.124 837.64 790.874C827.123 793.625 814.155 795 798.738 795C782.245 795 766.827 792.907 752.485 788.722C738.143 784.416 725.534 777.241 714.658 767.195C703.902 757.15 695.476 743.577 689.381 726.475C683.405 709.374 680.417 688.027 680.417 662.435C680.417 633.973 685.317 609.816 695.118 589.964C705.037 569.992 719.081 554.805 737.247 544.4C755.413 533.996 776.926 528.794 801.785 528.794C819.235 528.794 833.218 530.588 843.736 534.175C854.372 537.763 862.44 542.008 867.937 546.912C873.435 551.695 877.319 555.881 879.59 559.469C880.427 560.784 881.024 561.98 881.383 563.056C881.742 564.013 881.981 565.568 882.1 567.72C882.459 570.59 882.518 574.776 882.279 580.277C882.16 585.778 881.742 590.622 881.024 594.807C880.546 597.438 879.77 599.172 878.694 600.009C878.216 600.488 877.379 600.906 876.184 601.265C874.989 601.624 873.196 601.803 870.806 601.803C866.981 601.803 862.679 601.684 857.898 601.444C853.118 601.086 849.532 600.727 847.142 600.368C844.273 599.89 842.182 599.232 840.867 598.395C839.552 597.438 838.238 596.003 836.923 594.09C834.772 590.98 831.067 587.393 825.808 583.327C820.549 579.261 811.885 577.228 799.813 577.228C782.842 577.228 768.859 583.805 757.863 596.96C746.868 609.995 741.37 631.162 741.37 660.462C741.37 689.642 747.107 711.287 758.581 725.399C770.174 739.51 784.276 746.566 800.889 746.566Z" fill="#2F2828"/>
<path d="M1032.04 795C1011.85 795 994.278 791.771 979.338 785.313C964.399 778.736 952.806 768.571 944.559 754.818C936.312 741.065 932.189 723.306 932.189 701.541C932.189 668.893 940.555 644.198 957.288 627.455C974.02 610.713 996.25 602.341 1023.98 602.341C1042.02 602.341 1057.26 605.57 1069.69 612.028C1082.24 618.486 1091.74 627.395 1098.2 638.756C1104.77 650.117 1108.06 663.093 1108.06 677.683C1108.06 691.914 1104.41 701.84 1097.12 707.461C1089.83 713.081 1079.19 715.892 1065.21 715.892H988.302C989.258 728.209 993.74 737.597 1001.75 744.055C1009.87 750.513 1020.87 753.742 1034.73 753.742C1045.73 753.742 1054.51 752.127 1061.09 748.898C1067.78 745.55 1072.44 742.919 1075.07 741.005C1077.34 739.331 1079.91 738.554 1082.78 738.673C1085.05 738.673 1088.28 739.152 1092.46 740.108C1096.76 740.946 1101.01 742.56 1105.19 744.952C1108.18 746.506 1109.67 748.659 1109.67 751.41C1109.67 752.964 1109.37 755.177 1108.77 758.047C1108.42 759.721 1107.82 762.173 1106.98 765.402C1106.14 768.511 1105.07 771.441 1103.75 774.191C1103.04 775.507 1101.9 776.763 1100.35 777.958C1097.96 779.633 1094.07 781.845 1088.7 784.596C1083.44 787.346 1076.21 789.738 1067 791.771C1057.8 793.924 1046.15 795 1032.04 795ZM987.943 679.118H1046.39C1052.48 679.118 1055.53 676.307 1055.53 670.687C1055.53 662.196 1052.84 655.08 1047.46 649.34C1042.2 643.48 1034.26 640.55 1023.62 640.55C1012.03 640.55 1003.48 644.257 997.983 651.672C992.604 659.087 989.258 668.235 987.943 679.118Z" fill="#2F2828"/>
<path d="M1343.34 676.248V781.008C1343.34 784.596 1342.56 787.107 1341.01 788.542C1339.57 789.858 1337.06 790.515 1333.48 790.515H1296.55C1292.96 790.515 1290.39 789.858 1288.84 788.542C1287.4 787.107 1286.69 784.596 1286.69 781.008V685.576C1286.69 672.54 1283.94 663.033 1278.44 657.054C1272.94 651.074 1265.47 648.084 1256.03 648.084C1246.59 648.084 1239.3 650.117 1234.16 654.183C1229.14 658.249 1225.25 663.392 1222.51 669.61V781.008C1222.51 784.596 1221.73 787.107 1220.17 788.542C1218.74 789.858 1216.23 790.515 1212.65 790.515H1175.71C1172.13 790.515 1169.56 789.858 1168.01 788.542C1166.57 787.107 1165.85 784.596 1165.85 781.008V630.684C1165.85 627.814 1166.45 625.602 1167.65 624.047C1170.16 620.698 1173.15 617.29 1176.61 613.822C1180.2 610.354 1184.56 606.647 1189.7 602.7C1191.25 601.504 1192.75 600.906 1194.18 600.906C1195.49 600.906 1196.99 601.504 1198.66 602.7C1203.68 606.647 1207.98 610.414 1211.57 614.001C1215.15 617.589 1218.32 621.296 1221.07 625.123H1221.97C1224 622.492 1227.05 619.443 1231.11 615.975C1235.17 612.387 1240.85 609.218 1248.14 606.467C1255.55 603.717 1264.99 602.341 1276.47 602.341C1287.7 602.341 1298.4 604.614 1308.56 609.158C1318.72 613.702 1327.02 621.356 1333.48 632.119C1340.05 642.882 1343.34 657.592 1343.34 676.248Z" fill="#2F2828"/>
<path d="M1479.12 795C1439.2 795 1419.24 774.251 1419.24 732.754V648.622H1398.98C1395.4 648.622 1392.89 647.905 1391.45 646.47C1390.14 644.915 1389.48 642.344 1389.48 638.756V616.692C1389.48 613.104 1390.14 610.593 1391.45 609.158C1392.89 607.603 1395.4 606.826 1398.98 606.826H1419.24V577.945C1419.24 575.075 1419.84 572.863 1421.03 571.308C1426.05 564.73 1433.4 557.615 1443.08 549.961C1444.76 548.765 1446.25 548.167 1447.57 548.167C1449 548.167 1450.43 548.765 1451.87 549.961C1457.01 553.908 1461.31 557.615 1464.78 561.083C1468.36 564.551 1471.41 567.959 1473.92 571.308C1475.11 572.863 1475.71 575.075 1475.71 577.945V606.826H1507.44C1511.03 606.826 1513.48 607.603 1514.79 609.158C1516.23 610.593 1516.94 613.104 1516.94 616.692V638.756C1516.94 642.344 1516.23 644.915 1514.79 646.47C1513.48 647.905 1511.03 648.622 1507.44 648.622H1475.71V722.888C1475.71 742.022 1482.64 751.589 1496.51 751.589C1498.66 751.589 1500.63 751.41 1502.42 751.051C1504.22 750.573 1505.77 750.094 1507.08 749.616C1509.59 748.659 1511.33 748.3 1512.28 748.539C1513.36 748.779 1514.32 750.094 1515.15 752.486L1525.55 780.29C1526.63 783.28 1525.91 785.433 1523.4 786.748C1521.61 787.585 1517.24 789.14 1510.31 791.412C1503.5 793.804 1493.1 795 1479.12 795Z" fill="#2F2828"/>
<path d="M1660.44 795C1640.24 795 1622.67 791.771 1607.73 785.313C1592.79 778.736 1581.2 768.571 1572.95 754.818C1564.7 741.065 1560.58 723.306 1560.58 701.541C1560.58 668.893 1568.95 644.198 1585.68 627.455C1602.41 610.713 1624.64 602.341 1652.37 602.341C1670.41 602.341 1685.65 605.57 1698.08 612.028C1710.63 618.486 1720.13 627.395 1726.59 638.756C1733.16 650.117 1736.45 663.093 1736.45 677.683C1736.45 691.914 1732.8 701.84 1725.51 707.461C1718.22 713.081 1707.58 715.892 1693.6 715.892H1616.69C1617.65 728.209 1622.13 737.597 1630.14 744.055C1638.26 750.513 1649.26 753.742 1663.12 753.742C1674.12 753.742 1682.9 752.127 1689.48 748.898C1696.17 745.55 1700.83 742.919 1703.46 741.005C1705.73 739.331 1708.3 738.554 1711.17 738.673C1713.44 738.673 1716.67 739.152 1720.85 740.108C1725.15 740.946 1729.4 742.56 1733.58 744.952C1736.57 746.506 1738.06 748.659 1738.06 751.41C1738.06 752.964 1737.76 755.177 1737.16 758.047C1736.81 759.721 1736.21 762.173 1735.37 765.402C1734.53 768.511 1733.46 771.441 1732.14 774.191C1731.43 775.507 1730.29 776.763 1728.74 777.958C1726.35 779.633 1722.46 781.845 1717.09 784.596C1711.83 787.346 1704.6 789.738 1695.39 791.771C1686.19 793.924 1674.54 795 1660.44 795ZM1616.33 679.118H1674.78C1680.87 679.118 1683.92 676.307 1683.92 670.687C1683.92 662.196 1681.23 655.08 1675.85 649.34C1670.59 643.48 1662.65 640.55 1652.01 640.55C1640.42 640.55 1631.87 644.257 1626.37 651.672C1620.99 659.087 1617.65 668.235 1616.33 679.118Z" fill="#2F2828"/>
<path d="M1850.9 640.909H1851.61C1860.58 616.034 1876.71 603.597 1900.02 603.597C1903 603.597 1905.45 603.776 1907.37 604.135C1909.28 604.374 1910.59 604.614 1911.31 604.853C1913.1 605.451 1914 606.826 1914 608.979V652.21C1914 655.917 1911.85 656.934 1907.55 655.26C1906.11 654.662 1904.02 654.064 1901.27 653.466C1898.64 652.748 1894.94 652.39 1890.16 652.39C1877.85 652.39 1868.23 656.934 1861.29 666.023C1854.36 674.992 1850.9 687.25 1850.9 702.797V781.008C1850.9 784.596 1850.12 787.107 1848.57 788.542C1847.13 789.858 1844.62 790.515 1841.04 790.515H1804.11C1800.52 790.515 1797.95 789.858 1796.4 788.542C1794.96 787.107 1794.25 784.596 1794.25 781.008V630.684C1794.25 627.814 1794.84 625.602 1796.04 624.047C1798.55 620.698 1801.54 617.29 1805 613.822C1808.59 610.354 1812.95 606.647 1818.09 602.7C1819.04 601.983 1820 601.504 1820.96 601.265C1821.91 601.026 1822.75 600.906 1823.47 600.906C1825.14 600.906 1826.81 601.504 1828.49 602.7C1838.41 610.473 1845.34 617.111 1849.28 622.612C1850.36 624.047 1850.9 625.721 1850.9 627.635V640.909Z" fill="#2F2828"/>
<path d="M233.866 317.967C218.727 326.284 208.04 335.641 201.807 346.037C195.672 356.434 192.604 369.503 192.604 385.247V393.415C192.604 396.386 192.011 398.465 190.823 399.653C189.636 400.742 187.608 401.287 184.738 401.287H153.866C151.096 401.287 149.067 400.742 147.781 399.653C146.594 398.465 146 396.386 146 393.415V385.247C146 370.494 147.633 358.018 150.898 347.819C154.163 337.522 159.556 328.413 167.076 320.492C174.695 312.57 185.035 304.798 198.096 297.174C183.254 288.658 171.578 278.411 163.068 266.43C154.658 254.35 150.453 241.033 150.453 226.478V212.071C150.453 209.2 150.947 207.021 151.937 205.536C156.39 199.001 162.623 192.12 170.638 184.892C172.122 183.704 173.458 183.11 174.645 183.11C175.833 183.11 177.07 183.704 178.356 184.892C182.71 188.654 186.371 192.268 189.339 195.734C192.308 199.1 194.88 202.368 197.057 205.536C198.047 207.12 198.541 209.299 198.541 212.071V226.478C198.541 234.597 201.807 243.162 208.337 252.172C214.967 261.182 224.02 268.658 235.498 274.598C246.877 268.757 255.04 261.727 259.988 253.508C264.935 245.29 267.409 236.28 267.409 226.478V212.071C267.409 209.2 267.904 207.021 268.893 205.536C273.148 199.1 279.184 192.219 287.001 184.892C288.485 183.704 289.722 183.11 290.711 183.11C291.898 183.11 293.135 183.704 294.422 184.892C298.577 188.654 302.09 192.268 304.96 195.734C307.928 199.1 310.451 202.368 312.529 205.536C313.519 207.12 314.013 209.299 314.013 212.071V226.478C314.013 242.815 310.006 256.578 301.991 267.767C294.075 278.955 283.933 288.064 271.565 295.094C283.241 302.025 292.74 309.501 300.062 317.521C307.384 325.442 312.776 334.849 316.24 345.74C319.703 356.533 321.434 369.701 321.434 385.247V393.415C321.434 396.386 320.791 398.465 319.505 399.653C318.318 400.742 316.24 401.287 313.271 401.287H281.657C278.689 401.287 276.562 400.742 275.275 399.653C274.088 398.465 273.494 396.386 273.494 393.415V385.247C273.494 374.652 272.505 365.444 270.526 357.622C268.646 349.8 264.836 342.77 259.097 336.532C253.457 330.195 245.047 324.007 233.866 317.967Z" fill="#2F2828"/>
<path d="M409.359 405C394.814 405 383.237 400.94 374.629 392.821C366.119 384.603 361.864 373.316 361.864 358.958C361.864 351.532 363.2 344.651 365.872 338.314C368.642 331.878 373.392 326.234 380.12 321.383C386.948 316.432 396.447 312.471 408.617 309.501C420.887 306.531 436.521 304.798 455.519 304.303C455.519 295.292 453.243 288.807 448.691 284.846C444.239 280.886 437.51 278.906 428.506 278.906C420.392 278.906 413.763 280.292 408.617 283.064C403.472 285.837 400.256 287.718 398.97 288.708C397.585 289.896 395.903 290.342 393.924 290.045C391.252 289.649 388.382 288.956 385.315 287.965C382.347 286.975 379.131 285.837 375.668 284.549C375.173 284.351 374.629 284.054 374.035 283.658C373.441 283.163 373.095 282.47 372.996 281.579C372.996 281.084 373.046 280.49 373.145 279.797C373.243 279.005 373.491 277.618 373.887 275.638C374.282 273.658 374.876 271.232 375.668 268.361C376.459 265.39 377.201 263.113 377.894 261.529C378.785 259.845 380.269 258.261 382.347 256.776C384.029 255.39 389.125 253.162 397.634 250.093C406.144 247.023 418.463 245.488 434.591 245.488C479.019 245.488 501.232 267.123 501.232 310.392V394.455C501.232 396.336 500.688 397.97 499.6 399.356C498.61 400.643 496.879 401.287 494.405 401.287H472.142C470.559 401.287 469.124 401.089 467.838 400.693C466.65 400.198 465.512 399.307 464.424 398.02L455.222 386.138H454.183C449.631 392.772 443.496 397.574 435.778 400.544C428.16 403.515 419.353 405 409.359 405ZM425.686 370.543C434.789 370.543 441.666 368.216 446.316 363.563C450.967 358.909 453.935 354.107 455.222 349.156V332.67C441.468 332.67 431.128 333.759 424.202 335.938C417.374 338.017 412.823 340.789 410.547 344.255C408.271 347.621 407.133 351.285 407.133 355.245C407.133 360.988 408.914 364.998 412.476 367.276C416.038 369.454 420.442 370.543 425.686 370.543Z" fill="#EA2049"/>
<path d="M588.564 387.475C583.122 378.86 577.729 368.959 572.386 357.77C567.142 346.483 562.343 335.096 557.989 323.61C553.734 312.026 550.32 301.481 547.748 291.975C545.175 282.371 543.889 274.995 543.889 269.846C543.889 267.866 544.433 266.232 545.521 264.945C550.073 259.301 556.554 253.409 564.965 247.271C566.449 246.28 567.785 245.785 568.972 245.785C570.258 245.785 571.594 246.28 572.979 247.271C577.531 250.538 581.341 253.608 584.408 256.479C587.574 259.35 590.246 262.172 592.423 264.945C593.511 266.232 594.055 268.064 594.055 270.44V269.697C594.055 276.133 595.193 284.599 597.469 295.094C599.844 305.491 603.06 316.481 607.116 328.066C611.173 339.651 615.873 350.295 621.217 359.998H621.959C626.411 352.671 630.369 344.75 633.832 336.235C637.296 327.72 640.215 319.204 642.589 310.689C644.964 302.174 646.745 294.352 647.932 287.223C649.219 280.094 649.862 274.301 649.862 269.846V270.44C649.862 268.064 650.357 266.232 651.346 264.945C653.622 262.172 656.294 259.35 659.361 256.479C662.428 253.608 666.139 250.538 670.492 247.271C671.878 246.28 673.164 245.785 674.352 245.785C675.737 245.785 677.023 246.28 678.21 247.271C682.663 250.538 686.423 253.608 689.49 256.479C692.558 259.35 695.18 262.172 697.357 264.945C698.346 266.232 698.841 267.965 698.841 270.143C698.742 275.49 697.357 283.015 694.685 292.718C692.014 302.322 688.402 312.917 683.85 324.502C679.398 335.987 674.401 347.324 668.86 358.513C663.319 369.602 657.679 379.256 651.94 387.475C648.477 392.524 645.36 396.089 642.589 398.168C639.819 400.247 635.02 401.287 628.192 401.287H612.46C605.335 401.287 600.388 400.297 597.617 398.317C594.946 396.336 591.928 392.722 588.564 387.475ZM543.889 269.697V269.846C543.889 270.044 543.889 270.242 543.889 270.44V269.697ZM698.841 269.846V270.44V270.143C698.841 270.044 698.841 269.945 698.841 269.846Z" fill="#2F2828"/>
<path d="M775.041 387.475C769.599 378.86 764.206 368.959 758.863 357.77C753.619 346.483 748.82 335.096 744.466 323.61C740.211 312.026 736.797 301.481 734.225 291.975C731.652 282.371 730.366 274.995 730.366 269.846C730.366 267.866 730.91 266.232 731.998 264.945C736.55 259.301 743.031 253.409 751.442 247.271C752.926 246.28 754.262 245.785 755.449 245.785C756.735 245.785 758.071 246.28 759.456 247.271C764.008 250.538 767.818 253.608 770.885 256.479C774.051 259.35 776.723 262.172 778.9 264.945C779.988 266.232 780.532 268.064 780.532 270.44V269.697C780.532 276.133 781.67 284.599 783.946 295.094C786.321 305.491 789.537 316.481 793.593 328.066C797.65 339.651 802.35 350.295 807.693 359.998H808.436C812.888 352.671 816.846 344.75 820.309 336.235C823.773 327.72 826.692 319.204 829.066 310.689C831.441 302.174 833.222 294.352 834.409 287.223C835.696 280.094 836.339 274.301 836.339 269.846V270.44C836.339 268.064 836.834 266.232 837.823 264.945C840.099 262.172 842.771 259.35 845.838 256.479C848.905 253.608 852.616 250.538 856.97 247.271C858.355 246.28 859.641 245.785 860.828 245.785C862.214 245.785 863.5 246.28 864.687 247.271C869.14 250.538 872.9 253.608 875.967 256.479C879.035 259.35 881.657 262.172 883.834 264.945C884.823 266.232 885.318 267.965 885.318 270.143C885.219 275.49 883.834 283.015 881.162 292.718C878.491 302.322 874.879 312.917 870.327 324.502C865.875 335.987 860.878 347.324 855.337 358.513C849.796 369.602 844.156 379.256 838.417 387.475C834.954 392.524 831.837 396.089 829.066 398.168C826.296 400.247 821.497 401.287 814.669 401.287H798.937C791.812 401.287 786.865 400.297 784.094 398.317C781.423 396.336 778.405 392.722 775.041 387.475ZM730.366 269.697V269.846C730.366 270.044 730.366 270.242 730.366 270.44V269.697ZM885.318 269.846V270.44V270.143C885.318 270.044 885.318 269.945 885.318 269.846Z" fill="#2F2828"/>
<path d="M921.147 199.298C921.147 198.011 921.543 196.872 922.334 195.882C923.126 194.892 924.165 193.605 925.451 192.021C928.222 188.852 931.438 185.535 935.099 182.07C938.76 178.505 942.47 175.089 946.23 171.822C948.605 169.941 950.386 169 951.573 169C952.761 169 954.591 169.941 957.065 171.822C965.08 178.753 971.907 185.486 977.547 192.021C978.834 193.506 979.873 194.793 980.664 195.882C981.555 196.872 982 198.011 982 199.298C982 200.585 981.555 201.724 980.664 202.714C979.873 203.704 978.784 205.041 977.399 206.724C974.727 209.794 971.61 213.111 968.048 216.675C964.486 220.141 960.825 223.458 957.065 226.626C955.68 227.814 954.591 228.606 953.8 229.003C953.008 229.3 952.266 229.448 951.573 229.448C950.881 229.448 950.139 229.3 949.347 229.003C948.655 228.606 947.517 227.814 945.933 226.626C941.976 223.458 938.265 220.141 934.802 216.675C931.339 213.111 928.222 209.695 925.451 206.427C924.165 204.843 923.126 203.605 922.334 202.714C921.543 201.724 921.147 200.585 921.147 199.298ZM974.876 393.415C974.876 396.386 974.233 398.465 972.946 399.653C971.759 400.742 969.681 401.287 966.712 401.287H936.138C933.169 401.287 931.042 400.742 929.756 399.653C928.568 398.465 927.974 396.386 927.974 393.415V257.073C927.974 254.103 928.568 252.073 929.756 250.984C931.042 249.795 933.169 249.201 936.138 249.201H966.712C969.681 249.201 971.759 249.795 972.946 250.984C974.233 252.073 974.876 254.103 974.876 257.073V393.415Z" fill="#EA2049"/>
</svg>
