<?xml version="1.0" encoding="UTF-8" standalone="no"?>
<svg width="813" height="230" viewBox="0 0 813 230" fill="none"
    xmlns="http://www.w3.org/2000/svg">
    <path d="M0.177734 79.9297C0.177734 71.2383 1.83789 63.084 5.1582 55.4668C8.47852 47.8496 12.9707 41.209 18.6348 35.5449C24.3965 29.7832 31.0859 25.2422 38.7031 21.9219C46.3203 18.6016 54.4746 16.9414 63.166 16.9414H159.553V58.9824H63.166C60.2363 58.9824 57.502 59.5195 54.9629 60.5938C52.4238 61.668 50.1777 63.1816 48.2246 65.1348C46.3691 66.9902 44.9043 69.1875 43.8301 71.7266C42.7559 74.2656 42.2188 77 42.2188 79.9297C42.2188 82.8594 42.7559 85.6426 43.8301 88.2793C44.9043 90.8184 46.3691 93.0645 48.2246 95.0176C50.1777 96.873 52.4238 98.3379 54.9629 99.4121C57.502 100.486 60.2363 101.023 63.166 101.023H105.207C113.898 101.023 122.053 102.684 129.67 106.004C137.385 109.227 144.074 113.719 149.738 119.48C155.5 125.145 159.992 131.834 163.215 139.549C166.535 147.166 168.195 155.32 168.195 164.012C168.195 172.703 166.535 180.857 163.215 188.475C159.992 196.092 155.5 202.781 149.738 208.543C144.074 214.207 137.385 218.699 129.67 222.02C122.053 225.34 113.898 227 105.207 227H11.8965V184.959H105.207C108.137 184.959 110.871 184.422 113.41 183.348C115.949 182.273 118.146 180.809 120.002 178.953C121.955 177 123.469 174.754 124.543 172.215C125.617 169.676 126.154 166.941 126.154 164.012C126.154 161.082 125.617 158.348 124.543 155.809C123.469 153.27 121.955 151.072 120.002 149.217C118.146 147.264 115.949 145.75 113.41 144.676C110.871 143.602 108.137 143.064 105.207 143.064H63.166C54.4746 143.064 46.3203 141.404 38.7031 138.084C31.0859 134.764 24.3965 130.271 18.6348 124.607C12.9707 118.846 8.47852 112.156 5.1582 104.539C1.83789 96.8242 0.177734 88.6211 0.177734 79.9297Z" fill="black"/>
    <path d="M361.537 227H351.869L336.342 205.467C332.533 208.885 328.48 212.107 324.184 215.135C319.984 218.064 315.541 220.652 310.854 222.898C306.166 225.047 301.332 226.756 296.352 228.025C291.469 229.295 286.488 229.93 281.41 229.93C270.375 229.93 259.975 228.074 250.209 224.363C240.541 220.652 232.045 215.281 224.721 208.25C217.494 201.121 211.781 192.43 207.582 182.176C203.383 171.922 201.283 160.252 201.283 147.166C201.283 134.959 203.383 123.777 207.582 113.621C211.781 103.367 217.494 94.5781 224.721 87.2539C232.045 79.9297 240.541 74.2656 250.209 70.2617C259.975 66.1602 270.375 64.1094 281.41 64.1094C286.488 64.1094 291.518 64.7441 296.498 66.0137C301.479 67.2832 306.312 69.041 311 71.2871C315.688 73.5332 320.131 76.1699 324.33 79.1973C328.627 82.2246 332.631 85.4961 336.342 89.0117L351.869 70.4082H361.537V227ZM321.254 147.166C321.254 141.697 320.18 136.424 318.031 131.346C315.98 126.17 313.148 121.629 309.535 117.723C305.922 113.719 301.674 110.545 296.791 108.201C292.006 105.76 286.879 104.539 281.41 104.539C275.941 104.539 270.766 105.467 265.883 107.322C261.098 109.178 256.898 111.912 253.285 115.525C249.77 119.139 246.986 123.631 244.936 129.002C242.885 134.275 241.859 140.33 241.859 147.166C241.859 154.002 242.885 160.105 244.936 165.477C246.986 170.75 249.77 175.193 253.285 178.807C256.898 182.42 261.098 185.154 265.883 187.01C270.766 188.865 275.941 189.793 281.41 189.793C286.879 189.793 292.006 188.621 296.791 186.277C301.674 183.836 305.922 180.662 309.535 176.756C313.148 172.752 315.98 168.211 318.031 163.133C320.18 157.957 321.254 152.635 321.254 147.166Z" fill="#EA2049"/>
    <path d="M454.684 227L394.918 70.1152H440.475L474.752 167.967L508.883 70.1152H554.586L494.82 227H454.684Z" fill="black"/>
    <path d="M632.352 227L572.586 70.1152H618.143L652.42 167.967L686.551 70.1152H732.254L672.488 227H632.352Z" fill="black"/>
    <path d="M812.656 27.4883C812.656 31.1992 811.924 34.666 810.459 37.8887C809.092 41.1113 807.188 43.9434 804.746 46.3848C802.305 48.7285 799.424 50.6328 796.104 52.0977C792.881 53.4648 789.414 54.1484 785.703 54.1484C781.992 54.1484 778.477 53.4648 775.156 52.0977C771.934 50.6328 769.102 48.7285 766.66 46.3848C764.316 43.9434 762.412 41.1113 760.947 37.8887C759.58 34.666 758.896 31.1992 758.896 27.4883C758.896 23.875 759.58 20.457 760.947 17.2344C762.412 13.9141 764.316 11.082 766.66 8.73828C769.102 6.29688 771.934 4.39258 775.156 3.02539C778.477 1.56055 781.992 0.828125 785.703 0.828125C789.414 0.828125 792.881 1.56055 796.104 3.02539C799.424 4.39258 802.305 6.29688 804.746 8.73828C807.188 11.082 809.092 13.9141 810.459 17.2344C811.924 20.457 812.656 23.875 812.656 27.4883ZM805.771 227H765.488V70.1152H805.771V227Z" fill="#EA2049"/>
</svg>
